<?xml version="1.0" standalone="no"?>
<!DOCTYPE svg PUBLIC "-//W3C//DTD SVG 20010904//EN"
 "http://www.w3.org/TR/2001/REC-SVG-20010904/DTD/svg10.dtd">
<svg version="1.0" xmlns="http://www.w3.org/2000/svg"
 width="434.000000pt" height="434.000000pt" viewBox="0 0 434.000000 434.000000"
 preserveAspectRatio="xMidYMid meet">

<g transform="translate(0.000000,434.000000) scale(0.100000,-0.100000)"
fill="#000000" stroke="none">
<path d="M1988 4322 c-7 -24 -116 -41 -130 -20 -6 10 -10 10 -17 -1 -6 -9 -11
-10 -15 -3 -11 17 -35 2 -33 -20 1 -19 6 -20 56 -14 30 4 61 12 68 18 10 8 20
8 36 1 15 -7 29 -8 40 -1 10 5 26 6 37 3 15 -5 21 0 26 19 3 14 13 27 22 29
12 3 11 5 -4 6 -12 0 -25 -6 -28 -15 -3 -8 -10 -12 -16 -9 -6 4 -8 11 -5 16 4
5 -3 9 -13 9 -11 0 -22 -8 -24 -18z"/>
<path d="M2160 4331 c0 -21 33 -29 145 -34 118 -5 121 -4 122 17 1 11 -1 15
-4 9 -6 -17 -23 -17 -23 0 0 9 -15 14 -45 15 -25 1 -45 -2 -45 -8 0 -5 -5 -10
-11 -10 -5 0 -7 5 -4 10 3 6 -1 10 -9 10 -9 0 -16 -4 -16 -10 0 -5 -7 -10 -16
-10 -8 0 -12 5 -9 10 4 6 -12 10 -39 10 -25 0 -46 -4 -46 -9z"/>
<path d="M2550 4320 c0 -5 5 -10 10 -10 6 0 10 -7 10 -15 0 -20 16 -19 24 1 8
22 8 26 -3 19 -5 -3 -12 -1 -16 5 -8 13 -25 13 -25 0z"/>
<path d="M2085 4311 c-7 -12 31 -25 45 -16 5 3 10 10 10 16 0 12 -47 12 -55 0z"/>
<path d="M2620 4290 c6 -11 15 -20 20 -20 14 0 1 28 -16 34 -12 4 -12 2 -4
-14z"/>
<path d="M1655 4280 c-16 -7 -17 -9 -3 -9 9 -1 20 4 23 9 7 11 7 11 -20 0z"/>
<path d="M1700 4278 c0 -10 -6 -19 -12 -19 -7 -1 -17 -2 -23 -4 -5 -1 -16 -3
-24 -3 -9 -2 -11 -10 -7 -27 4 -15 2 -25 -4 -25 -6 0 -8 5 -5 10 4 6 -8 10
-29 10 -19 0 -38 -5 -42 -11 -3 -6 -19 -9 -34 -5 -32 6 -91 -31 -70 -44 6 -4
-6 -14 -30 -25 -22 -10 -43 -15 -47 -12 -3 4 2 9 11 12 9 3 23 7 32 10 9 3 14
8 11 11 -8 8 -115 -24 -123 -37 -5 -8 3 -10 24 -7 17 2 29 1 26 -4 -8 -12 0
-10 70 19 36 14 63 30 59 36 -3 5 3 6 16 2 15 -4 21 -3 19 7 -2 7 8 14 22 16
20 2 22 1 10 -7 -21 -15 -7 -13 58 5 32 9 61 23 65 30 4 8 17 14 27 14 22 0
26 25 10 50 -8 13 -10 12 -10 -2z"/>
<path d="M2055 4270 l-30 -8 33 -1 c17 0 32 4 32 9 0 6 -1 9 -2 9 -2 -1 -16
-5 -33 -9z"/>
<path d="M2220 4266 c0 -2 7 -6 15 -10 8 -3 15 -1 15 4 0 6 -7 10 -15 10 -8 0
-15 -2 -15 -4z"/>
<path d="M2761 4253 c-13 -14 -12 -18 5 -30 10 -7 24 -11 31 -9 7 3 15 1 18
-4 4 -6 16 -10 28 -10 13 0 31 -6 42 -14 28 -19 85 -30 85 -17 0 6 -7 11 -15
11 -8 0 -39 9 -70 21 -40 15 -55 25 -55 40 0 10 -6 19 -14 19 -8 0 -20 2 -28
5 -7 2 -19 -3 -27 -12z"/>
<path d="M1848 4243 c7 -3 16 -2 19 1 4 3 -2 6 -13 5 -11 0 -14 -3 -6 -6z"/>
<path d="M1788 4233 c7 -3 16 -2 19 1 4 3 -2 6 -13 5 -11 0 -14 -3 -6 -6z"/>
<path d="M2518 4233 c7 -3 16 -2 19 1 4 3 -2 6 -13 5 -11 0 -14 -3 -6 -6z"/>
<path d="M1726 4221 c-3 -4 6 -6 19 -3 14 2 25 6 25 8 0 8 -39 4 -44 -5z"/>
<path d="M1688 4213 c7 -3 16 -2 19 1 4 3 -2 6 -13 5 -11 0 -14 -3 -6 -6z"/>
<path d="M2668 4203 c7 -3 16 -2 19 1 4 3 -2 6 -13 5 -11 0 -14 -3 -6 -6z"/>
<path d="M1400 4180 c-9 -6 -10 -10 -3 -10 6 0 15 5 18 10 8 12 4 12 -15 0z"/>
<path d="M2798 4168 c5 -5 16 -8 23 -6 8 3 3 7 -10 11 -17 4 -21 3 -13 -5z"/>
<path d="M2990 4150 c0 -5 5 -10 11 -10 5 0 7 5 4 10 -3 6 -8 10 -11 10 -2 0
-4 -4 -4 -10z"/>
<path d="M1167 4077 c-3 -9 1 -18 10 -21 23 -9 29 2 11 20 -13 14 -16 14 -21
1z"/>
<path d="M1243 4061 c-35 -17 -72 -28 -83 -26 -17 3 -140 -68 -140 -81 0 -3 5
-2 12 2 7 4 8 3 4 -5 -4 -6 -11 -9 -16 -6 -12 7 -54 -14 -46 -23 4 -3 -11 -17
-33 -31 -100 -66 -186 -141 -163 -141 6 0 15 6 19 13 4 7 36 31 71 52 34 21
62 45 62 53 0 8 3 13 6 9 6 -5 113 58 124 73 3 4 16 11 30 15 14 4 39 18 55
30 17 12 60 36 98 54 37 17 67 33 67 36 0 7 0 7 -67 -24z"/>
<path d="M3170 4060 c0 -6 7 -10 15 -10 8 0 15 2 15 4 0 2 -7 6 -15 10 -8 3
-15 1 -15 -4z"/>
<path d="M3270 4020 c0 -11 4 -20 8 -20 4 0 8 9 9 20 1 11 -2 20 -8 20 -5 0
-9 -9 -9 -20z"/>
<path d="M3240 4020 c0 -5 5 -10 11 -10 5 0 7 5 4 10 -3 6 -8 10 -11 10 -2 0
-4 -4 -4 -10z"/>
<path d="M3293 4000 c-1 -9 12 -25 29 -34 16 -10 45 -31 62 -47 18 -16 36 -26
40 -22 11 12 6 18 -24 31 -17 8 -47 31 -68 51 -28 28 -38 34 -39 21z"/>
<path d="M3467 3894 c5 -13 1 -15 -18 -10 -22 6 -23 5 -5 -6 11 -7 47 -39 82
-71 34 -32 65 -57 67 -55 10 6 46 -35 40 -45 -4 -6 -1 -7 7 -2 7 4 16 2 21 -6
5 -8 9 -9 9 -3 0 16 -78 117 -101 129 -11 6 -17 14 -14 17 4 3 -7 15 -23 27
-30 21 -30 21 -25 1 3 -11 12 -20 19 -20 15 0 19 -16 6 -24 -8 -5 -46 39 -48
55 -1 5 -2 14 -3 19 0 6 -5 10 -11 10 -5 0 -7 -7 -3 -16z m95 -82 c-7 -2 -9
-8 -6 -13 3 -6 12 -5 22 3 15 11 15 11 4 -4 -8 -10 -9 -19 -3 -22 5 -3 11 -1
13 5 2 7 12 -1 23 -17 12 -20 14 -25 3 -17 -8 7 -17 11 -20 8 -7 -7 -51 42
-54 60 -1 9 4 11 14 7 10 -4 12 -7 4 -10z"/>
<path d="M639 3633 c-112 -115 -150 -160 -217 -260 -52 -77 -59 -92 -38 -89 9
1 34 32 56 69 21 37 46 74 54 83 9 8 16 23 17 32 0 14 2 13 9 -3 5 -11 9 -14
9 -7 1 7 6 10 11 7 6 -4 9 -3 8 2 -8 25 116 177 138 169 7 -3 10 2 7 15 -3 10
0 19 5 19 12 0 62 50 62 62 0 19 -22 1 -121 -99z"/>
<path d="M3672 3681 c-10 -6 -10 -10 3 -21 13 -11 15 -9 15 9 0 24 0 24 -18
12z"/>
<path d="M3696 3641 c-4 -5 -2 -12 3 -15 5 -4 12 -2 15 3 4 5 2 12 -3 15 -5 4
-12 2 -15 -3z"/>
<path d="M3830 3540 c0 -5 5 -10 11 -10 5 0 7 5 4 10 -3 6 -8 10 -11 10 -2 0
-4 -4 -4 -10z"/>
<path d="M3834 3482 c4 -3 14 -7 22 -8 9 -1 13 0 10 4 -4 3 -14 7 -22 8 -9 1
-13 0 -10 -4z"/>
<path d="M321 3211 c-53 -91 -91 -168 -91 -183 1 -12 24 20 25 33 0 12 33 38
40 31 5 -4 5 -1 1 6 -13 21 14 82 40 92 13 5 24 15 24 22 0 9 -3 8 -10 -2 -8
-13 -10 -12 -10 3 0 10 8 21 18 24 30 11 42 40 16 40 -8 0 -32 -30 -53 -66z"/>
<path d="M2105 3155 c-202 -54 -354 -166 -411 -300 -46 -108 -55 -204 -29
-313 20 -84 44 -128 105 -196 135 -147 433 -193 610 -94 68 38 160 115 157
131 -1 7 4 11 11 9 8 -1 11 2 7 9 -8 12 -30 -4 -30 -21 0 -6 -4 -10 -9 -9 -5
0 -12 -3 -15 -9 -14 -20 -115 -82 -168 -102 -77 -29 -201 -38 -234 -17 -13 8
-46 19 -74 23 -87 12 -156 44 -213 98 -254 240 -109 655 263 751 91 24 237 22
310 -3 33 -11 64 -18 69 -15 5 4 6 1 2 -6 -4 -6 0 -14 11 -18 10 -4 29 -20 43
-35 24 -27 26 -28 27 -8 1 11 -2 18 -8 15 -5 -4 -9 0 -9 8 0 21 -83 72 -157
96 -73 24 -181 27 -258 6z"/>
<path d="M315 3150 c-3 -5 -1 -10 4 -10 6 0 11 5 11 10 0 6 -2 10 -4 10 -3 0
-8 -4 -11 -10z"/>
<path d="M2048 3060 c-43 -23 -78 -69 -78 -103 0 -24 38 -107 74 -159 10 -16
16 -28 13 -28 -3 0 -37 14 -75 30 -85 36 -147 39 -185 10 -56 -44 -63 -173
-13 -217 38 -33 86 -30 206 13 56 20 103 34 105 32 2 -2 -21 -41 -51 -87 -78
-121 -86 -166 -36 -199 30 -20 125 -22 159 -3 37 19 48 83 30 166 -8 39 -14
71 -13 73 2 1 44 -33 94 -76 50 -43 100 -78 111 -79 10 -1 29 10 42 25 l24 27
-25 -22 c-20 -18 -29 -20 -45 -11 -11 6 -24 17 -28 25 -5 7 -13 10 -19 7 -6
-4 -8 -3 -5 2 3 6 -30 43 -74 83 -43 40 -76 77 -73 83 5 7 45 9 115 6 60 -3
109 -3 109 1 0 4 -15 8 -32 9 -39 3 -59 19 -35 28 9 3 17 10 17 14 0 8 -23 6
-107 -10 -23 -4 -45 -5 -47 -2 -6 5 38 88 86 164 17 26 26 53 22 59 -4 7 -3 9
3 6 10 -6 34 17 52 52 6 11 17 18 25 15 7 -3 16 1 19 8 9 25 -30 17 -56 -10
-14 -15 -51 -63 -82 -107 -57 -80 -57 -80 -52 -40 4 22 9 74 13 116 6 74 6 76
-21 97 -36 28 -115 29 -167 2z m153 -26 c24 -22 24 -48 -1 -170 -33 -166 -25
-153 -72 -108 -50 48 -114 145 -123 185 -8 34 14 65 70 101 36 23 96 19 126
-8z m-223 -266 c102 -44 142 -66 142 -77 0 -13 -228 -91 -268 -91 -14 0 -36
10 -49 22 -46 43 -19 170 39 181 13 2 27 5 31 6 5 0 52 -18 105 -41z m186
-231 c27 -145 7 -181 -91 -168 -29 4 -55 10 -58 13 -18 18 -5 72 30 125 53 81
85 123 94 123 4 0 15 -42 25 -93z"/>
<path d="M2291 3067 c-15 -19 -3 -49 18 -45 9 2 16 13 16 27 0 29 -17 37 -34
18z"/>
<path d="M265 3030 c-4 -12 -5 -24 -2 -27 3 -2 8 5 12 17 4 12 5 24 2 27 -3 2
-8 -5 -12 -17z"/>
<path d="M191 2961 c-11 -27 -21 -54 -21 -59 0 -5 -11 -35 -25 -67 -14 -32
-28 -74 -30 -94 -3 -36 -9 -58 -25 -96 -28 -67 -67 -308 -74 -460 -9 -189 38
-500 105 -699 55 -161 148 -371 192 -431 4 -5 26 -39 49 -75 56 -89 180 -252
186 -245 3 3 -16 32 -41 65 -26 33 -47 64 -47 70 0 5 -6 13 -13 17 -21 13 -38
61 -24 67 7 2 2 5 -10 5 -12 1 -24 9 -28 21 -3 11 -11 20 -16 20 -5 0 -9 6 -9
14 0 7 -7 19 -15 26 -8 7 -12 16 -9 21 3 5 0 9 -5 9 -6 0 -11 5 -11 11 0 6
-11 25 -25 43 -14 18 -25 38 -25 45 0 6 -13 39 -29 73 -16 33 -27 66 -25 73 3
6 -2 18 -11 25 -8 7 -15 19 -15 26 0 8 -5 14 -11 14 -5 0 -7 5 -4 10 4 6 -2
28 -13 48 -21 42 -37 104 -57 232 -8 47 -23 123 -33 170 -12 53 -16 89 -10 97
9 11 5 133 -5 149 -2 5 -1 45 2 89 6 64 4 82 -7 91 -10 7 -12 16 -6 25 5 8 10
37 11 64 3 56 20 135 22 98 1 -12 9 -26 18 -32 13 -7 18 -22 18 -53 0 -24 5
-43 10 -43 6 0 9 9 8 20 -2 23 37 313 45 335 3 8 5 18 4 21 -2 9 55 216 63
228 3 6 2 11 -2 11 -11 0 -43 -70 -43 -93 0 -9 -4 -18 -9 -21 -5 -3 -9 -16 -9
-28 0 -13 -5 -43 -12 -68 -11 -41 -15 -58 -19 -97 0 -7 -8 -13 -17 -13 -13 0
-15 6 -10 28 4 15 10 54 15 87 5 33 26 106 46 163 39 109 43 147 6 63z m-53
-401 c1 -28 -2 -40 -12 -40 -7 0 -21 -10 -30 -22 -16 -23 -16 -23 -9 7 3 17
10 32 15 33 4 2 6 8 3 12 -3 5 -3 20 1 34 9 37 31 21 32 -24z m-11 -97 c2 -6
-3 -13 -12 -16 -10 -5 -15 0 -15 14 0 21 21 22 27 2z"/>
<path d="M2425 2999 c-4 -6 -5 -12 -2 -15 2 -3 7 2 10 11 7 17 1 20 -8 4z"/>
<path d="M2545 3001 c-3 -5 0 -13 6 -17 7 -4 9 -3 5 4 -3 5 0 13 6 15 9 4 10
6 1 6 -6 1 -14 -3 -18 -8z"/>
<path d="M1850 2925 c-15 -18 -6 -45 14 -45 21 0 46 28 40 45 -8 19 -38 19
-54 0z"/>
<path d="M2509 2714 c-17 -21 0 -49 32 -49 17 0 24 6 25 20 1 42 -32 59 -57
29z m41 -19 c0 -8 -4 -15 -9 -15 -13 0 -22 16 -14 24 11 11 23 6 23 -9z"/>
<path d="M2370 2709 c0 -5 5 -7 10 -4 6 3 10 8 10 11 0 2 -4 4 -10 4 -5 0 -10
-5 -10 -11z"/>
<path d="M2406 2708 c3 -5 10 -6 15 -3 13 9 11 12 -6 12 -8 0 -12 -4 -9 -9z"/>
<path d="M1864 2503 c-19 -13 -34 -51 -28 -67 16 -42 87 2 80 49 -3 21 -33 31
-52 18z m30 -44 c-12 -13 -21 -16 -27 -10 -14 14 10 41 29 34 13 -5 12 -8 -2
-24z"/>
<path d="M2563 2435 c-10 -11 -9 -13 6 -12 11 1 17 7 14 14 -6 16 -5 16 -20
-2z"/>
<path d="M2241 2366 c-9 -11 -10 -20 -1 -36 13 -24 38 -23 53 1 23 37 -25 68
-52 35z m39 -16 c0 -5 -5 -10 -11 -10 -5 0 -7 5 -4 10 3 6 8 10 11 10 2 0 4
-4 4 -10z"/>
<path d="M120 2134 c0 -8 5 -12 10 -9 6 4 8 11 5 16 -9 14 -15 11 -15 -7z"/>
<path d="M130 2030 c-7 -33 -3 -89 7 -105 14 -22 16 -18 13 40 -2 33 -17 82
-20 65z"/>
<path d="M813 1900 c-30 -12 -39 -54 -19 -85 16 -24 21 -25 114 -25 102 0 132
-10 111 -37 -8 -9 -43 -13 -125 -13 -109 0 -114 -1 -114 -21 0 -20 4 -21 125
-17 136 3 158 12 158 63 0 48 -24 60 -136 65 -82 4 -102 8 -102 20 0 12 22 15
123 18 114 2 122 4 122 22 0 19 -7 20 -117 19 -65 0 -128 -4 -140 -9z"/>
<path d="M1476 1902 c-9 -16 -4 -97 9 -129 36 -86 219 -87 262 -2 7 13 13 50
13 82 0 50 -2 58 -17 55 -14 -2 -19 -16 -23 -63 -6 -74 -11 -82 -59 -95 -48
-13 -99 -3 -128 23 -19 17 -23 31 -23 79 0 44 -4 58 -14 58 -8 0 -17 -4 -20
-8z"/>
<path d="M1820 1890 c0 -18 7 -20 65 -20 l65 0 0 -80 c0 -64 3 -80 15 -80 12
0 15 16 15 80 l0 80 60 0 c53 0 60 2 60 20 0 19 -7 20 -140 20 -133 0 -140 -1
-140 -20z"/>
<path d="M2200 1862 c-112 -151 -113 -152 -88 -152 14 0 30 11 43 30 19 28 24
30 87 30 63 0 68 -2 88 -30 18 -25 60 -42 60 -24 0 9 -142 194 -149 194 -3 -1
-22 -22 -41 -48z m58 -24 c21 -21 13 -38 -18 -38 -33 0 -35 3 -20 31 12 22 21
24 38 7z"/>
<path d="M2913 1903 c-15 -6 -17 -90 -3 -127 5 -14 21 -32 35 -42 21 -14 28
-14 42 -3 15 12 16 12 11 -2 -6 -14 1 -16 45 -14 88 5 83 3 65 22 -16 15 -19
15 -42 -1 -14 -9 -26 -13 -26 -8 0 8 -14 12 -53 13 -9 0 -15 4 -12 10 5 8 -7
13 -26 11 -7 -1 -9 16 -9 91 0 56 -2 61 -27 50z m187 -167 c0 -2 -7 -7 -16
-10 -8 -3 -12 -2 -9 4 6 10 25 14 25 6z"/>
<path d="M3155 1900 c-3 -6 1 -7 9 -4 18 7 21 14 7 14 -6 0 -13 -4 -16 -10z"/>
<path d="M145 1890 c-22 -35 -2 -222 32 -300 4 -8 7 -22 7 -30 1 -8 8 -15 16
-15 22 -1 60 -28 60 -42 0 -7 5 -13 11 -13 7 0 5 10 -5 25 -9 13 -16 30 -16
37 0 7 -10 18 -22 23 -17 7 -22 17 -20 35 7 58 1 104 -16 116 -9 8 -12 14 -5
14 12 0 7 37 -9 57 -5 6 -11 30 -13 54 -5 47 -10 56 -20 39z"/>
<path d="M1194 1890 c-32 -13 -64 -59 -64 -92 0 -64 71 -98 203 -98 69 0 77 2
77 19 0 17 -10 19 -99 23 -109 4 -141 19 -141 64 0 41 35 54 142 54 91 0 98 1
98 20 0 19 -6 20 -97 19 -54 0 -108 -4 -119 -9z"/>
<path d="M2456 1869 c-3 -17 -6 -60 -6 -95 0 -57 2 -64 20 -64 17 0 20 7 20
40 0 40 0 40 38 40 31 0 40 -5 54 -30 20 -35 53 -50 109 -50 28 0 39 4 39 15
0 10 -10 15 -32 15 -37 0 -79 19 -86 38 -2 8 10 12 41 12 51 0 77 19 77 55 0
47 -22 55 -149 55 l-118 0 -7 -31z m241 -15 c10 -26 -16 -34 -114 -34 -93 0
-93 0 -93 25 l0 25 100 0 c83 0 102 -3 107 -16z"/>
<path d="M2800 1800 c0 -82 3 -100 15 -100 12 0 15 18 15 100 0 82 -3 100 -15
100 -12 0 -15 -18 -15 -100z"/>
<path d="M3110 1755 c0 -2 6 -8 13 -14 10 -8 14 -7 14 2 0 8 -6 14 -14 14 -7
0 -13 -1 -13 -2z"/>
<path d="M201 1531 c-8 -5 -9 -11 -3 -15 5 -3 12 1 16 9 6 17 6 18 -13 6z"/>
<path d="M1657 1423 c-9 -38 -19 -82 -22 -100 -5 -23 -13 -33 -32 -38 -35 -8
-41 5 -32 68 4 28 8 62 8 75 1 17 9 24 31 29 17 3 30 10 30 15 0 9 -50 2 -100
-13 l-25 -8 23 -7 c22 -6 23 -10 16 -78 -3 -42 -12 -76 -20 -82 -8 -6 -14 -14
-14 -16 0 -10 44 -17 54 -9 24 18 53 18 65 0 15 -24 46 -24 73 0 21 20 21 20
-16 9 -20 -6 -39 -8 -43 -4 -6 6 1 48 34 204 3 12 1 22 -5 22 -5 0 -17 -30
-25 -67z"/>
<path d="M2824 1478 c3 -10 1 -20 -4 -23 -6 -4 -10 -13 -10 -21 0 -8 4 -13 9
-10 14 9 19 43 9 57 -8 11 -9 10 -4 -3z"/>
<path d="M1392 1398 c-9 -73 -8 -86 7 -107 25 -36 35 -35 53 1 l17 33 0 -37
c2 -82 26 -92 27 -10 0 31 4 90 8 130 5 42 5 72 0 72 -5 0 -21 -35 -37 -78
-15 -43 -34 -87 -43 -98 -14 -17 -15 -11 -9 79 8 119 -8 130 -23 15z"/>
<path d="M2260 1444 c-34 -31 -40 -43 -38 -68 3 -33 14 -36 85 -24 18 4 35 2
38 -3 7 -10 -60 -61 -104 -79 -17 -7 -28 -16 -25 -21 7 -12 65 13 109 47 25
19 35 34 33 48 -3 19 -9 21 -65 19 -76 -3 -82 11 -27 63 36 34 78 44 88 22 3
-7 5 -4 3 7 -4 36 -50 31 -97 -11z"/>
<path d="M2420 1450 c0 -66 -12 -110 -29 -110 -14 0 -14 -2 -1 -10 10 -6 14
-22 12 -47 -2 -29 0 -34 7 -23 6 8 11 27 11 43 0 19 5 27 18 28 9 0 27 2 40 3
22 3 23 0 18 -31 -17 -94 -18 -107 -10 -100 4 4 9 13 10 20 19 109 24 152 23
202 -1 69 -5 64 -14 -16 -6 -55 -8 -57 -38 -62 -18 -2 -35 -3 -38 -1 -3 2 -2
29 3 60 6 38 5 61 -2 68 -7 7 -10 -1 -10 -24z"/>
<path d="M2598 1468 c-48 -10 -66 -28 -27 -28 17 0 20 -5 15 -27 -3 -16 -8
-54 -12 -85 -3 -32 -11 -58 -18 -59 -6 0 -2 -4 9 -9 11 -4 24 -4 30 1 5 5 17
9 27 9 10 0 18 4 18 9 0 4 -12 6 -26 3 l-27 -5 7 84 c8 83 15 99 49 99 9 0 17
5 17 10 0 6 -3 9 -7 9 -5 -1 -29 -6 -55 -11z"/>
<path d="M1245 1446 c-16 -14 -25 -25 -19 -26 5 0 15 5 22 12 15 15 15 9 -3
-72 -16 -74 -19 -149 -5 -115 5 11 9 32 9 47 1 20 9 32 31 43 72 37 96 2 28
-42 -24 -15 -45 -28 -47 -30 -2 -2 -2 -6 1 -9 8 -8 59 20 81 44 24 26 18 56
-11 60 -28 4 -28 22 -1 45 12 11 19 27 17 40 -5 34 -64 35 -103 3z m95 1 c0
-17 -66 -94 -74 -86 -8 8 14 83 28 91 18 12 46 9 46 -5z"/>
<path d="M1802 1456 c-48 -16 -74 -34 -66 -47 3 -5 17 -1 31 8 l26 17 -7 -44
c-4 -25 -11 -67 -15 -93 -5 -26 -4 -50 1 -53 5 -3 29 15 53 40 25 25 45 43 45
40 0 -3 16 13 35 36 40 48 42 60 17 83 -26 24 -71 28 -120 13z m116 -34 c3
-17 -13 -39 -63 -88 -37 -36 -68 -64 -70 -62 -3 2 2 31 10 63 8 33 14 73 15
88 0 28 1 28 53 25 46 -3 52 -6 55 -26z"/>
<path d="M2100 1448 c-31 -47 -32 -52 -6 -29 29 27 31 20 15 -45 -10 -37 -15
-44 -35 -44 -27 0 -28 3 -13 32 6 11 8 22 6 25 -3 3 -13 -9 -22 -26 -8 -17
-22 -31 -31 -31 -10 0 -13 -6 -9 -19 3 -10 1 -31 -5 -46 -6 -15 -8 -30 -6 -33
3 -2 13 14 22 37 23 59 92 73 78 16 -3 -13 -2 -30 2 -37 7 -11 34 124 38 191
1 32 -16 36 -34 9z"/>
<path d="M2758 1463 c7 -3 16 -2 19 1 4 3 -2 6 -13 5 -11 0 -14 -3 -6 -6z"/>
<path d="M2678 1448 c-35 -12 -37 -31 -3 -22 l26 6 -21 -53 c-11 -30 -19 -67
-19 -84 2 -30 2 -30 8 4 5 26 12 35 30 38 13 2 31 7 40 13 11 6 4 7 -22 3
l-38 -6 25 57 c26 58 24 63 -26 44z"/>
<path d="M276 1416 c-6 -31 -4 -41 8 -48 9 -5 16 -20 16 -33 0 -13 11 -36 24
-50 16 -17 22 -33 19 -48 -5 -21 -5 -21 12 -5 17 16 16 19 -14 77 -17 33 -31
66 -31 73 -1 7 -7 27 -14 43 l-13 30 -7 -39z"/>
<path d="M2804 1390 c0 -13 4 -16 10 -10 7 7 7 13 0 20 -6 6 -10 3 -10 -10z"/>
<path d="M2797 1343 c-13 -24 -16 -63 -5 -69 7 -4 10 -4 7 0 -4 4 -3 23 1 42
7 32 6 43 -3 27z"/>
<path d="M2721 1261 c-8 -5 -21 -7 -30 -4 -12 4 -13 3 -5 -6 8 -9 19 -8 45 3
19 9 27 15 19 15 -8 1 -21 -3 -29 -8z"/>
<path d="M2816 1252 c-3 -5 1 -9 9 -9 8 0 12 4 9 9 -3 4 -7 8 -9 8 -2 0 -6 -4
-9 -8z"/>
<path d="M366 1203 c-3 -3 6 -17 20 -30 14 -13 23 -30 20 -38 -3 -8 -1 -17 4
-20 15 -10 24 44 9 61 -17 20 -45 35 -53 27z"/>
<path d="M3943 1125 c0 -8 4 -12 9 -9 5 3 6 10 3 15 -9 13 -12 11 -12 -6z"/>
<path d="M3860 1080 c0 -5 5 -10 11 -10 5 0 7 5 4 10 -3 6 -8 10 -11 10 -2 0
-4 -4 -4 -10z"/>
<path d="M3835 1030 c-3 -6 1 -7 9 -4 18 7 21 14 7 14 -6 0 -13 -4 -16 -10z"/>
<path d="M516 1003 c-12 -12 -6 -33 10 -33 12 0 15 -6 11 -22 -3 -11 0 -33 8
-47 24 -48 205 -223 320 -309 22 -17 54 -42 70 -55 17 -14 53 -37 80 -51 27
-15 57 -34 67 -43 10 -9 21 -13 26 -9 4 4 -2 14 -13 22 -51 37 -58 46 -44 55
11 7 10 11 -6 23 -17 13 -20 13 -23 0 -2 -8 -7 -14 -12 -14 -14 0 -23 22 -12
29 6 3 0 14 -14 24 -21 16 -23 16 -17 1 4 -12 2 -15 -8 -12 -8 3 -14 12 -14
21 0 9 -19 29 -41 45 -22 16 -50 43 -62 58 -20 27 -21 27 -22 7 0 -12 12 -30
27 -41 16 -12 24 -24 19 -29 -5 -4 -11 -2 -13 5 -3 6 -10 12 -17 12 -19 0 -76
57 -76 76 0 12 6 15 28 10 24 -5 23 -3 -10 17 -21 12 -38 30 -38 40 0 9 -4 17
-10 17 -13 0 -13 -23 1 -37 6 -6 7 -13 2 -16 -13 -8 -113 85 -113 104 0 9 -7
19 -15 23 -17 6 -21 36 -5 36 6 0 -5 14 -25 31 -19 17 -35 37 -35 44 0 16 -15
27 -24 18z"/>
<path d="M3760 886 c0 -2 8 -10 18 -17 15 -13 16 -12 3 4 -13 16 -21 21 -21
13z"/>
<path d="M670 845 c0 -15 26 -32 36 -23 2 3 2 13 -2 22 -8 20 -34 21 -34 1z"/>
<path d="M3690 853 c5 -2 10 -9 10 -14 0 -6 -4 -8 -9 -4 -5 3 -12 1 -16 -5 -4
-6 -11 -7 -17 -4 -7 4 -8 2 -4 -4 3 -6 -3 -16 -14 -22 -11 -6 -19 -16 -17 -23
1 -7 -5 -12 -14 -12 -9 0 -28 -15 -43 -32 -15 -18 -30 -32 -34 -30 -12 4 -69
-57 -77 -83 -4 -14 -16 -33 -27 -44 -11 -10 -16 -21 -12 -25 4 -3 9 0 11 7 3
6 11 12 19 12 8 0 15 6 16 13 4 39 17 67 31 67 5 0 23 15 39 33 16 17 26 24
23 15 -4 -11 -3 -18 4 -18 6 0 11 4 11 10 0 5 6 7 13 4 8 -3 20 2 27 11 13 16
0 21 -16 5 -6 -6 -15 -5 -24 1 -13 9 -12 10 3 5 15 -5 22 4 18 27 0 4 6 7 15
7 8 0 13 -4 10 -9 -8 -12 13 -9 38 6 12 7 15 13 7 17 -6 4 -11 2 -11 -5 0 -7
-3 -9 -7 -5 -23 23 10 60 39 45 9 -5 19 -6 21 -2 9 16 2 56 -11 59 -7 1 -8 0
-2 -3z m3 -37 c4 -10 1 -13 -8 -9 -8 3 -12 9 -9 14 7 12 11 11 17 -5z"/>
<path d="M3770 786 c0 -2 7 -7 16 -10 8 -3 12 -2 9 4 -6 10 -25 14 -25 6z"/>
<path d="M565 719 c-8 -12 141 -163 235 -238 123 -97 200 -145 212 -133 9 9 5
14 -13 21 -13 5 -27 7 -30 5 -4 -2 -12 3 -19 11 -7 8 -19 15 -26 15 -8 0 -14
7 -14 15 0 8 -5 15 -11 15 -19 0 -89 65 -89 83 0 9 -7 17 -15 17 -20 0 -55 31
-48 43 3 6 1 7 -5 3 -7 -4 -12 -2 -12 3 0 6 -6 11 -14 11 -8 0 -17 8 -20 18
-8 22 -101 122 -115 122 -5 0 -13 -5 -16 -11z"/>
<path d="M3720 700 c-8 -5 -12 -12 -9 -15 4 -3 12 1 19 10 14 17 11 19 -10 5z"/>
<path d="M3506 646 c-32 -28 -36 -34 -21 -40 13 -5 16 -2 11 9 -3 10 -1 15 7
13 7 -2 14 2 17 7 8 19 25 33 34 27 5 -3 6 0 2 6 -9 15 -4 17 -50 -22z"/>
<path d="M3652 654 c-7 -8 -8 -14 -3 -14 10 0 25 19 20 25 -2 1 -10 -3 -17
-11z"/>
<path d="M3624 622 c2 -9 9 -18 17 -20 12 -3 12 -2 0 6 -11 8 -10 11 5 14 17
3 17 4 -2 10 -16 4 -21 1 -20 -10z"/>
<path d="M3430 539 c-77 -60 -85 -68 -45 -45 30 17 125 96 115 95 -3 0 -34
-23 -70 -50z"/>
<path d="M3590 580 c0 -7 -9 -9 -22 -6 -13 3 -18 3 -11 0 7 -3 9 -13 6 -22 -5
-14 -3 -14 18 3 13 11 25 21 27 21 2 1 -1 5 -7 9 -6 3 -11 1 -11 -5z"/>
<path d="M3334 545 c-16 -13 -16 -14 -1 -9 23 8 21 -5 -5 -27 -34 -30 -14 -33
31 -5 41 26 57 51 24 39 -11 -4 -14 -3 -9 5 10 17 -16 15 -40 -3z"/>
<path d="M3515 526 c-11 -7 -22 -13 -25 -12 -11 2 -53 -34 -47 -40 4 -4 15 0
25 9 10 10 22 14 26 10 3 -4 13 3 22 15 8 12 20 19 26 16 7 -4 8 -2 4 4 -9 15
-8 15 -31 -2z"/>
<path d="M1129 470 c12 -11 28 -17 34 -13 12 8 -20 33 -42 33 -12 -1 -10 -6 8
-20z"/>
<path d="M3470 475 c-7 -8 -19 -15 -26 -15 -8 0 -14 -7 -14 -16 0 -15 6 -12
68 32 2 1 -1 5 -6 8 -5 3 -15 -1 -22 -9z"/>
<path d="M3324 459 c-19 -22 -19 -22 4 -8 12 8 22 17 22 21 0 12 -6 9 -26 -13z"/>
<path d="M1180 450 c0 -6 5 -10 10 -10 6 0 10 -6 10 -14 0 -7 7 -19 15 -26 11
-9 15 -9 15 -1 0 7 5 9 10 6 6 -3 10 -15 10 -26 0 -20 15 -26 25 -9 9 15 27 1
21 -16 -3 -8 1 -14 8 -14 8 0 36 -9 62 -20 37 -16 49 -18 55 -8 6 10 12 7 24
-10 12 -16 22 -21 41 -16 18 5 24 2 24 -10 0 -20 16 -21 27 -1 7 12 16 12 52
3 23 -6 45 -16 48 -23 2 -7 13 -11 23 -8 29 8 90 -16 90 -35 1 -15 3 -14 15 2
13 17 15 18 15 3 0 -9 3 -17 8 -17 9 1 42 26 42 33 0 3 -28 10 -62 16 -82 14
-97 18 -133 30 -16 6 -73 25 -125 42 -52 18 -124 45 -160 62 -36 16 -89 40
-117 53 -29 13 -53 19 -53 14z"/>
<path d="M3397 436 c-21 -16 -23 -38 -2 -30 8 4 13 10 10 14 -3 5 1 10 7 13 7
2 11 7 8 10 -3 3 -13 0 -23 -7z"/>
<path d="M3263 419 c-35 -22 -46 -37 -15 -20 22 13 58 40 52 41 -3 0 -20 -10
-37 -21z"/>
<path d="M3327 382 c-26 -28 -20 -34 13 -17 17 9 28 20 25 25 -9 15 -20 12
-38 -8z"/>
<path d="M3188 374 c-38 -20 -36 -28 2 -9 17 9 30 18 30 20 0 7 -1 6 -32 -11z"/>
<path d="M1015 341 c-9 -16 153 -105 299 -165 33 -14 37 -14 26 -1 -7 8 -17
15 -22 15 -5 0 -35 15 -67 33 -31 19 -69 37 -84 41 -15 3 -25 10 -23 15 3 5 0
9 -7 8 -33 -1 -47 4 -47 18 0 8 -9 15 -20 15 -11 0 -23 7 -26 15 -7 17 -20 20
-29 6z"/>
<path d="M3110 330 c-9 -6 -10 -10 -3 -10 6 0 15 5 18 10 8 12 4 12 -15 0z"/>
<path d="M3262 333 c-13 -3 -39 -15 -59 -29 -19 -13 -39 -22 -43 -19 -4 3 -10
-4 -13 -15 -4 -17 4 -15 62 16 55 30 98 58 81 53 -3 -1 -15 -4 -28 -6z"/>
<path d="M3045 300 c-22 -11 -53 -24 -69 -30 -16 -5 -27 -12 -24 -15 6 -6 138
51 138 60 0 6 3 7 -45 -15z"/>
<path d="M3090 240 c-13 -11 -31 -20 -40 -20 -10 0 -23 -7 -30 -15 -7 -8 -10
-15 -6 -15 13 0 116 55 116 62 0 14 -16 9 -40 -12z"/>
<path d="M1870 210 c24 -24 30 -25 30 -6 0 8 -7 17 -16 20 -29 11 -34 6 -14
-14z"/>
<path d="M1936 213 c-9 -10 -7 -43 3 -43 5 0 14 7 21 15 7 8 24 15 38 15 14 0
23 2 21 4 -8 7 -77 14 -83 9z"/>
<path d="M2144 182 c4 -25 33 -39 48 -23 11 11 9 12 -11 6 -19 -6 -23 -4 -18
8 3 8 0 18 -8 20 -8 4 -12 -1 -11 -11z"/>
<path d="M2685 165 c-39 -14 -40 -14 -5 -8 41 7 82 22 60 22 -8 0 -33 -7 -55
-14z"/>
<path d="M2906 164 c-3 -7 5 -9 20 -6 33 6 38 17 8 17 -13 0 -26 -5 -28 -11z"/>
<path d="M2078 159 c-14 -9 -12 -10 40 -14 21 -2 32 1 29 9 -4 13 -50 16 -69
5z"/>
<path d="M2235 160 c-3 -5 -1 -10 4 -10 6 0 11 5 11 10 0 6 -2 10 -4 10 -3 0
-8 -4 -11 -10z"/>
<path d="M2547 135 c-32 -7 -61 -16 -65 -20 -4 -4 7 -5 23 -1 17 3 52 10 79
16 27 6 52 12 54 15 8 8 -28 4 -91 -10z"/>
<path d="M1475 115 c34 -16 72 -21 45 -6 -8 5 -28 11 -45 14 l-30 6 30 -14z"/>
<path d="M2779 121 c-2 -6 -19 -11 -36 -13 -18 -1 -33 -5 -33 -8 0 -5 -23 -10
-60 -12 -8 -1 -24 -7 -35 -14 -18 -13 -18 -14 -1 -14 26 0 159 40 170 51 5 5
7 11 4 14 -3 4 -8 2 -9 -4z"/>
<path d="M2310 100 l-45 -7 55 0 c30 0 69 3 85 7 28 7 28 8 -10 7 -22 0 -60
-3 -85 -7z"/>
<path d="M1548 93 c7 -3 16 -2 19 1 4 3 -2 6 -13 5 -11 0 -14 -3 -6 -6z"/>
<path d="M1600 80 c8 -5 22 -10 30 -10 13 0 13 1 0 10 -8 5 -22 10 -30 10 -13
0 -13 -1 0 -10z"/>
<path d="M1728 53 c7 -3 16 -2 19 1 4 3 -2 6 -13 5 -11 0 -14 -3 -6 -6z"/>
<path d="M2290 28 c0 -13 8 -18 31 -18 24 0 30 4 27 18 -5 24 -58 25 -58 0z"/>
<path d="M2180 25 c-11 -13 -8 -15 15 -15 23 0 26 2 15 15 -7 8 -14 15 -15 15
-1 0 -8 -7 -15 -15z"/>
<path d="M2030 20 c0 -6 7 -10 15 -10 8 0 15 2 15 4 0 2 -7 6 -15 10 -8 3 -15
1 -15 -4z"/>
<path d="M1938 13 c7 -3 16 -2 19 1 4 3 -2 6 -13 5 -11 0 -14 -3 -6 -6z"/>
<path d="M2100 10 c14 -4 34 -8 45 -9 16 -1 17 1 5 9 -8 5 -28 9 -45 9 -29 -1
-29 -1 -5 -9z"/>
</g>
</svg>
